<?xml version="1.0" encoding="UTF-8" standalone="no"?>
<!-- Created with Inkscape (http://www.inkscape.org/) -->
<svg
   xmlns:dc="http://purl.org/dc/elements/1.1/"
   xmlns:cc="http://creativecommons.org/ns#"
   xmlns:rdf="http://www.w3.org/1999/02/22-rdf-syntax-ns#"
   xmlns:svg="http://www.w3.org/2000/svg"
   xmlns="http://www.w3.org/2000/svg"
   xmlns:sodipodi="http://sodipodi.sourceforge.net/DTD/sodipodi-0.dtd"
   xmlns:inkscape="http://www.inkscape.org/namespaces/inkscape"
   width="744.09448819"
   height="1052.3622047"
   id="svg2"
   sodipodi:version="0.32"
   inkscape:version="0.46"
   sodipodi:docname="phillipsCurveData.svg"
   inkscape:output_extension="org.inkscape.output.svg.inkscape">
  <defs
     id="defs4">
    <inkscape:perspective
       sodipodi:type="inkscape:persp3d"
       inkscape:vp_x="0 : 526.18109 : 1"
       inkscape:vp_y="0 : 1000 : 0"
       inkscape:vp_z="744.09448 : 526.18109 : 1"
       inkscape:persp3d-origin="372.04724 : 350.78739 : 1"
       id="perspective10" />
    <clipPath
       id="clipPath2525"
       clipPathUnits="userSpaceOnUse">
      <path
         id="path2527"
         d="M 73.44,86.4 L 401.76,86.4 L 401.76,223.2 L 73.44,223.2 L 73.44,86.4 z" />
    </clipPath>
    <clipPath
       id="clipPath2517"
       clipPathUnits="userSpaceOnUse">
      <path
         id="path2519"
         d="M 0,86.4 L 432,86.4 L 432,223.2 L 0,223.2 L 0,86.4 z" />
    </clipPath>
    <clipPath
       id="clipPath2509"
       clipPathUnits="userSpaceOnUse">
      <path
         id="path2511"
         d="M 73.44,86.4 L 401.76,86.4 L 401.76,223.2 L 73.44,223.2 L 73.44,86.4 z" />
    </clipPath>
    <clipPath
       id="clipPath2465"
       clipPathUnits="userSpaceOnUse">
      <path
         id="path2467"
         d="M 73.44,223.2 L 401.76,223.2 L 401.76,360 L 73.44,360 L 73.44,223.2 z" />
    </clipPath>
    <clipPath
       id="clipPath2457"
       clipPathUnits="userSpaceOnUse">
      <path
         id="path2459"
         d="M 0,223.2 L 432,223.2 L 432,360 L 0,360 L 0,223.2 z" />
    </clipPath>
    <inkscape:perspective
       id="perspective2447"
       inkscape:persp3d-origin="372.04724 : 350.78739 : 1"
       inkscape:vp_z="744.09448 : 526.18109 : 1"
       inkscape:vp_y="0 : 1000 : 0"
       inkscape:vp_x="0 : 526.18109 : 1"
       sodipodi:type="inkscape:persp3d" />
  </defs>
  <sodipodi:namedview
     id="base"
     pagecolor="#ffffff"
     bordercolor="#666666"
     borderopacity="1.0"
     gridtolerance="10000"
     guidetolerance="10"
     objecttolerance="10"
     inkscape:pageopacity="0.0"
     inkscape:pageshadow="2"
     inkscape:zoom="1.16"
     inkscape:cx="375"
     inkscape:cy="419.55516"
     inkscape:document-units="px"
     inkscape:current-layer="layer1"
     showgrid="false"
     inkscape:window-width="1024"
     inkscape:window-height="721"
     inkscape:window-x="-4"
     inkscape:window-y="-4" />
  <metadata
     id="metadata7">
    <rdf:RDF>
      <cc:Work
         rdf:about="">
        <dc:format>image/svg+xml</dc:format>
        <dc:type
           rdf:resource="http://purl.org/dc/dcmitype/StillImage" />
      </cc:Work>
    </rdf:RDF>
  </metadata>
  <g
     inkscape:label="Layer 1"
     inkscape:groupmode="layer"
     id="layer1">
    <g
       id="g2451"
       transform="matrix(1.25,0,0,-1.25,75.83973,886.53023)" />
    <g
       id="g2453"
       transform="matrix(1.25,0,0,-1.25,75.83973,886.53023)">
      <g
         id="g2455"
         clip-path="url(#clipPath2457)" />
    </g>
    <text
       id="text2501"
       x="70.640892"
       y="695.17444"
       style="font-size:15px">
      <tspan
         id="tspan2503"
         sodipodi:role="line"
         y="695.17444"
         x="70.640892 78.980919 87.320885 95.660912 108.15591 116.49587 119.82589 128.16592 135.66589 148.16092 156.50092 164.84091"
         style="font-size:15px;font-variant:normal;font-weight:normal;writing-mode:lr-tb;fill:#000000;fill-opacity:1;fill-rule:nonzero;stroke:none;font-family:Helvetica;-inkscape-font-specification:Helvetica">unemployment</tspan>
    </text>
    <g
       id="g2505"
       transform="matrix(1.25,0,0,-1.25,75.83973,886.53023)">
      <g
         id="g2507"
         clip-path="url(#clipPath2509)" />
    </g>
    <g
       id="g2513"
       transform="matrix(1.25,0,0,-1.25,75.83973,886.53023)">
      <g
         id="g2515"
         clip-path="url(#clipPath2517)" />
    </g>
    <g
       id="g2858"
       transform="matrix(1,0,0,0.3604878,0,494.12644)">
      <g
         transform="matrix(1.25,0,0,-1.25,75.83973,886.53023)"
         id="g2461">
        <g
           clip-path="url(#clipPath2465)"
           id="g2463">
          <path
             id="path2469"
             style="fill:none;stroke:#000000;stroke-width:0.75;stroke-linecap:round;stroke-linejoin:round;stroke-miterlimit:10;stroke-dasharray:none;stroke-opacity:1"
             d="M 85.6,272.77 L 86.11,271.06 L 86.63,265.92 L 87.14,259.08 L 87.66,257.37 L 88.17,255.65 L 88.69,257.37 L 89.2,259.08 L 89.72,264.21 L 90.23,267.64 L 90.74,269.35 L 91.26,260.79 L 91.77,259.08 L 92.29,252.23 L 92.8,262.5 L 93.32,259.08 L 93.83,257.37 L 94.34,262.5 L 94.86,264.21 L 95.37,265.92 L 95.89,264.21 L 96.4,274.48 L 96.92,274.48 L 97.43,283.04 L 97.95,283.04 L 98.46,288.18 L 98.97,288.18 L 99.49,289.89 L 100,291.6 L 100.52,288.18 L 101.03,289.89 L 101.55,283.04 L 102.06,284.75 L 102.57,281.33 L 103.09,274.48 L 103.6,272.77 L 104.12,269.35 L 104.63,264.21 L 105.15,265.92 L 105.66,265.92 L 106.18,264.21 L 106.69,264.21 L 107.2,262.5 L 107.72,267.64 L 108.23,265.92 L 108.75,262.5 L 109.26,267.64 L 109.78,264.21 L 110.29,267.64 L 110.8,271.06 L 111.32,267.64 L 111.83,267.64 L 112.35,271.06 L 112.86,265.92 L 113.38,265.92 L 113.89,262.5 L 114.41,264.21 L 114.92,264.21 L 115.43,267.64 L 115.95,264.21 L 116.46,265.92 L 116.98,262.5 L 117.49,262.5 L 118.01,260.79 L 118.52,257.37 L 119.03,259.08 L 119.55,253.94 L 120.06,255.65 L 120.58,257.37 L 121.09,257.37 L 121.61,252.23 L 122.12,255.65 L 122.64,253.94 L 123.15,257.37 L 123.66,250.52 L 124.18,252.23 L 124.69,248.81 L 125.21,248.81 L 125.72,245.38 L 126.24,245.38 L 126.75,243.67 L 127.26,241.96 L 127.78,240.25 L 128.29,238.54 L 128.81,238.54 L 129.32,235.11 L 129.84,235.11 L 130.35,235.11 L 130.87,236.83 L 131.38,235.11 L 131.89,235.11 L 132.41,235.11 L 132.92,233.4 L 133.44,233.4 L 133.95,231.69 L 134.47,235.11 L 134.98,236.83 L 135.5,235.11 L 136.01,235.11 L 136.52,235.11 L 137.04,235.11 L 137.55,236.83 L 138.07,235.11 L 138.58,235.11 L 139.1,235.11 L 139.61,238.54 L 140.12,236.83 L 140.64,235.11 L 141.15,233.4 L 141.67,235.11 L 142.18,233.4 L 142.7,229.98 L 143.21,229.98 L 143.73,233.4 L 144.24,233.4 L 144.75,229.98 L 145.27,228.27 L 145.78,228.27 L 146.3,228.27 L 146.81,228.27 L 147.33,228.27 L 147.84,228.27 L 148.35,228.27 L 148.87,228.27 L 149.38,228.27 L 149.9,229.98 L 150.41,229.98 L 150.93,229.98 L 151.44,233.4 L 151.96,233.4 L 152.47,229.98 L 152.98,229.98 L 153.5,236.83 L 154.01,241.96 L 154.53,245.38 L 155.04,248.81 L 155.56,252.23 L 156.07,253.94 L 156.58,255.65 L 157.1,257.37 L 157.61,262.5 L 158.13,264.21 L 158.64,271.06 L 159.16,274.48 L 159.67,271.06 L 160.19,271.06 L 160.7,272.77 L 161.21,271.06 L 161.73,271.06 L 162.24,271.06 L 162.76,272.77 L 163.27,274.48 L 163.79,272.77 L 164.3,269.35 L 164.81,272.77 L 165.33,272.77 L 165.84,269.35 L 166.36,267.64 L 166.87,269.35 L 167.39,267.64 L 167.9,267.64 L 168.42,267.64 L 168.93,265.92 L 169.44,265.92 L 169.96,264.21 L 170.47,265.92 L 170.99,260.79 L 171.5,259.08 L 172.02,253.94 L 172.53,255.65 L 173.05,253.94 L 173.56,255.65 L 174.07,253.94 L 174.59,253.94 L 175.1,252.23 L 175.62,252.23 L 176.13,252.23 L 176.65,248.81 L 177.16,252.23 L 177.67,253.94 L 178.19,257.37 L 178.7,259.08 L 179.22,257.37 L 179.73,257.37 L 180.25,257.37 L 180.76,262.5 L 181.28,264.21 L 181.79,264.21 L 182.3,271.06 L 182.82,272.77 L 183.33,283.04 L 183.85,293.31 L 184.36,308.72 L 184.88,308.72 L 185.39,317.28 L 185.9,320.7 L 186.42,324.12 L 186.93,320.7 L 187.45,317.28 L 187.96,313.85 L 188.48,313.85 L 188.99,313.85 L 189.51,312.14 L 190.02,310.43 L 190.53,305.29 L 191.05,301.87 L 191.56,300.16 L 192.08,301.87 L 192.59,296.74 L 193.11,300.16 L 193.62,303.58 L 194.13,303.58 L 194.65,300.16 L 195.16,301.87 L 195.68,303.58 L 196.19,303.58 L 196.71,298.45 L 197.22,300.16 L 197.74,296.74 L 198.25,293.31 L 198.76,289.89 L 199.28,293.31 L 199.79,288.18 L 200.31,289.89 L 200.82,286.46 L 201.34,286.46 L 201.85,286.46 L 202.36,279.62 L 202.88,279.62 L 203.39,277.91 L 203.91,277.91 L 204.42,274.48 L 204.94,272.77 L 205.45,271.06 L 205.97,276.19 L 206.48,271.06 L 206.99,272.77 L 207.51,269.35 L 208.02,271.06 L 208.54,272.77 L 209.05,271.06 L 209.57,271.06 L 210.08,269.35 L 210.59,269.35 L 211.11,265.92 L 211.62,267.64 L 212.14,267.64 L 212.65,272.77 L 213.17,271.06 L 213.68,272.77 L 214.2,271.06 L 214.71,272.77 L 215.22,277.91 L 215.74,277.91 L 216.25,277.91 L 216.77,288.18 L 217.28,298.45 L 217.8,300.16 L 218.31,303.58 L 218.83,301.87 L 219.34,298.45 L 219.85,298.45 L 220.37,298.45 L 220.88,293.31 L 221.4,298.45 L 221.91,296.74 L 222.43,296.74 L 222.94,293.31 L 223.45,298.45 L 223.97,298.45 L 224.48,293.31 L 225,296.74 L 225.51,300.16 L 226.03,305.29 L 226.54,312.14 L 227.06,315.56 L 227.57,317.28 L 228.08,322.41 L 228.6,324.12 L 229.11,329.26 L 229.63,330.97 L 230.14,334.39 L 230.66,337.82 L 231.17,337.82 L 231.68,342.95 L 232.2,348.09 L 232.71,354.93 L 233.23,354.93 L 233.74,348.09 L 234.26,348.09 L 234.77,346.37 L 235.29,344.66 L 235.8,342.95 L 236.31,342.95 L 236.83,330.97 L 237.34,332.68 L 237.86,327.55 L 238.37,320.7 L 238.89,315.56 L 239.4,312.14 L 239.91,307.01 L 240.43,303.58 L 240.94,303.58 L 241.46,301.87 L 241.97,296.74 L 242.49,293.31 L 243,298.45 L 243.52,298.45 L 244.03,295.02 L 244.54,296.74 L 245.06,293.31 L 245.57,295.02 L 246.09,295.02 L 246.6,293.31 L 247.12,293.31 L 247.63,295.02 L 248.14,293.31 L 248.66,296.74 L 249.17,296.74 L 249.69,291.6 L 250.2,291.6 L 250.72,291.6 L 251.23,289.89 L 251.75,289.89 L 252.26,284.75 L 252.77,293.31 L 253.29,293.31 L 253.8,291.6 L 254.32,293.31 L 254.83,293.31 L 255.35,289.89 L 255.86,288.18 L 256.37,289.89 L 256.89,289.89 L 257.4,288.18 L 257.92,283.04 L 258.43,283.04 L 258.95,283.04 L 259.46,283.04 L 259.98,277.91 L 260.49,277.91 L 261,276.19 L 261.52,274.48 L 262.03,272.77 L 262.55,271.06 L 263.06,272.77 L 263.58,269.35 L 264.09,267.64 L 264.61,267.64 L 265.12,267.64 L 265.63,267.64 L 266.15,262.5 L 266.66,265.92 L 267.18,262.5 L 267.69,262.5 L 268.21,265.92 L 268.72,262.5 L 269.23,262.5 L 269.75,260.79 L 270.26,260.79 L 270.78,262.5 L 271.29,259.08 L 271.81,255.65 L 272.32,259.08 L 272.84,259.08 L 273.35,260.79 L 273.86,259.08 L 274.38,259.08 L 274.89,260.79 L 275.41,260.79 L 275.92,262.5 L 276.44,262.5 L 276.95,262.5 L 277.46,260.79 L 277.98,259.08 L 278.49,262.5 L 279.01,262.5 L 279.52,259.08 L 280.04,264.21 L 280.55,267.64 L 281.07,271.06 L 281.58,271.06 L 282.09,276.19 L 282.61,277.91 L 283.12,279.62 L 283.64,283.04 L 284.15,286.46 L 284.67,284.75 L 285.18,288.18 L 285.69,288.18 L 286.21,286.46 L 286.72,288.18 L 287.24,288.18 L 287.75,289.89 L 288.27,289.89 L 288.78,295.02 L 289.3,295.02 L 289.81,296.74 L 290.32,296.74 L 290.84,296.74 L 291.35,300.16 L 291.87,303.58 L 292.38,301.87 L 292.9,300.16 L 293.41,300.16 L 293.92,295.02 L 294.44,296.74 L 294.95,296.74 L 295.47,295.02 L 295.98,291.6 L 296.5,289.89 L 297.01,291.6 L 297.53,291.6 L 298.04,289.89 L 298.55,288.18 L 299.07,286.46 L 299.58,284.75 L 300.1,286.46 L 300.61,283.04 L 301.13,281.33 L 301.64,283.04 L 302.15,283.04 L 302.67,281.33 L 303.18,279.62 L 303.7,274.48 L 304.21,274.48 L 304.73,274.48 L 305.24,272.77 L 305.76,271.06 L 306.27,269.35 L 306.78,265.92 L 307.3,264.21 L 307.81,265.92 L 308.33,262.5 L 308.84,262.5 L 309.36,269.35 L 309.87,265.92 L 310.39,265.92 L 310.9,267.64 L 311.41,267.64 L 311.93,265.92 L 312.44,264.21 L 312.96,265.92 L 313.47,265.92 L 313.99,265.92 L 314.5,264.21 L 315.01,264.21 L 315.53,265.92 L 316.04,265.92 L 316.56,260.79 L 317.07,264.21 L 317.59,257.37 L 318.1,259.08 L 318.62,259.08 L 319.13,262.5 L 319.64,262.5 L 320.16,260.79 L 320.67,259.08 L 321.19,259.08 L 321.7,257.37 L 322.22,253.94 L 322.73,255.65 L 323.24,253.94 L 323.76,252.23 L 324.27,253.94 L 324.79,250.52 L 325.3,248.81 L 325.82,250.52 L 326.33,248.81 L 326.85,248.81 L 327.36,250.52 L 327.87,243.67 L 328.39,245.38 L 328.9,247.1 L 329.42,247.1 L 329.93,247.1 L 330.45,248.81 L 330.96,247.1 L 331.47,245.38 L 331.99,245.38 L 332.5,243.67 L 333.02,245.38 L 333.53,241.96 L 334.05,243.67 L 334.56,241.96 L 335.08,243.67 L 335.59,243.67 L 336.1,241.96 L 336.62,241.96 L 337.13,240.25 L 337.65,240.25 L 338.16,238.54 L 338.68,238.54 L 339.19,240.25 L 339.7,238.54 L 340.22,235.11 L 340.73,238.54 L 341.25,238.54 L 341.76,238.54 L 342.28,240.25 L 342.79,236.83 L 343.31,236.83 L 343.82,236.83 L 344.33,236.83 L 344.85,241.96 L 345.36,241.96 L 345.88,243.67 L 346.39,245.38 L 346.91,243.67 L 347.42,247.1 L 347.94,248.81 L 348.45,253.94 L 348.96,255.65 L 349.48,260.79 L 349.99,264.21 L 350.51,267.64 L 351.02,267.64 L 351.54,267.64 L 352.05,267.64 L 352.56,271.06 L 353.08,269.35 L 353.59,269.35 L 354.11,269.35 L 354.62,267.64 L 355.14,267.64 L 355.65,267.64 L 356.17,271.06 L 356.68,272.77 L 357.19,269.35 L 357.71,271.06 L 358.22,271.06 L 358.74,272.77 L 359.25,274.48 L 359.77,277.91 L 360.28,276.19 L 360.79,274.48 L 361.31,274.48 L 361.82,272.77 L 362.34,269.35 L 362.85,267.64 L 363.37,267.64 L 363.88,265.92 L 364.4,269.35 L 364.91,265.92 L 365.42,265.92 L 365.94,265.92 L 366.45,264.21 L 366.97,262.5 L 367.48,262.5 L 368,264.21 L 368.51,262.5 L 369.02,262.5 L 369.54,259.08 L 370.05,262.5 L 370.57,259.08 L 371.08,257.37 L 371.6,257.37 L 372.11,255.65 L 372.63,255.65 L 373.14,253.94 L 373.65,257.37 L 374.17,255.65 L 374.68,255.65 L 375.2,252.23 L 375.71,250.52 L 376.23,250.52 L 376.74,250.52 L 377.25,250.52 L 377.77,250.52 L 378.28,248.81 L 378.8,250.52 L 379.31,250.52 L 379.83,247.1 L 380.34,245.38 L 380.86,247.1 L 381.37,245.38 L 381.88,248.81 L 382.4,247.1 L 382.91,245.38 L 383.43,247.1 L 383.94,247.1 L 384.46,248.81 L 384.97,250.52 L 385.48,250.52 L 386,250.52 L 386.51,252.23 L 387.03,250.52 L 387.54,255.65 L 388.06,253.94 L 388.57,252.23 L 389.09,257.37 L 389.6,255.65" />
        </g>
      </g>
      <g
         transform="matrix(1.25,0,0,-1.25,75.83973,886.53023)"
         id="g2521">
        <g
           clip-path="url(#clipPath2525)"
           id="g2523">
          <path
             id="path2529"
             style="fill:none;stroke:#000000;stroke-width:0.75;stroke-linecap:round;stroke-linejoin:round;stroke-miterlimit:10;stroke-dasharray:none;stroke-opacity:1"
             d="M 85.6,120.86 L 86.11,120.86 L 86.63,120.86 L 87.14,120.86 L 87.66,120.86 L 88.17,139.39 L 88.69,139.33 L 89.2,120.86 L 89.72,139.27 L 90.23,139.2 L 90.74,120.86 L 91.26,120.86 L 91.77,120.86 L 92.29,120.86 L 92.8,120.86 L 93.32,139.14 L 93.83,139.08 L 94.34,120.86 L 94.86,120.86 L 95.37,120.86 L 95.89,120.86 L 96.4,157.17 L 96.92,120.86 L 97.43,120.86 L 97.95,120.86 L 98.46,120.86 L 98.97,120.86 L 99.49,120.86 L 100,120.86 L 100.52,120.86 L 101.03,138.9 L 101.55,120.86 L 102.06,138.84 L 102.57,120.86 L 103.09,120.86 L 103.6,120.86 L 104.12,120.86 L 104.63,138.78 L 105.15,138.72 L 105.66,120.86 L 106.18,120.86 L 106.69,120.86 L 107.2,120.86 L 107.72,138.66 L 108.23,138.6 L 108.75,120.86 L 109.26,120.86 L 109.78,120.86 L 110.29,120.86 L 110.8,138.54 L 111.32,120.86 L 111.83,120.86 L 112.35,120.86 L 112.86,138.48 L 113.38,138.42 L 113.89,138.37 L 114.41,103.41 L 114.92,138.37 L 115.43,120.86 L 115.95,138.31 L 116.46,120.86 L 116.98,120.86 L 117.49,120.86 L 118.01,138.25 L 118.52,120.86 L 119.03,120.86 L 119.55,120.86 L 120.06,138.2 L 120.58,120.86 L 121.09,120.86 L 121.61,138.14 L 122.12,138.09 L 122.64,120.86 L 123.15,120.86 L 123.66,120.86 L 124.18,138.03 L 124.69,137.98 L 125.21,137.92 L 125.72,120.86 L 126.24,120.86 L 126.75,120.86 L 127.26,137.87 L 127.78,137.82 L 128.29,137.76 L 128.81,120.86 L 129.32,154.56 L 129.84,137.6 L 130.35,137.55 L 130.87,137.5 L 131.38,120.86 L 131.89,137.45 L 132.41,153.93 L 132.92,137.3 L 133.44,137.25 L 133.95,120.86 L 134.47,120.86 L 134.98,120.86 L 135.5,137.2 L 136.01,120.86 L 136.52,137.15 L 137.04,120.86 L 137.55,153.33 L 138.07,137 L 138.58,136.95 L 139.1,136.9 L 139.61,136.86 L 140.12,152.76 L 140.64,136.71 L 141.15,136.67 L 141.67,136.62 L 142.18,136.58 L 142.7,136.53 L 143.21,136.48 L 143.73,152.02 L 144.24,151.84 L 144.75,136.26 L 145.27,136.22 L 145.78,151.48 L 146.3,136.09 L 146.81,151.22 L 147.33,135.96 L 147.84,135.92 L 148.35,165.9 L 148.87,150.64 L 149.38,135.67 L 149.9,150.39 L 150.41,150.23 L 150.93,135.47 L 151.44,149.99 L 151.96,149.83 L 152.47,149.68 L 152.98,149.52 L 153.5,149.37 L 154.01,149.22 L 154.53,149.07 L 155.04,148.93 L 155.56,134.82 L 156.07,148.71 L 156.58,134.71 L 157.1,134.68 L 157.61,148.42 L 158.13,148.28 L 158.64,148.14 L 159.16,148 L 159.67,134.36 L 160.19,120.86 L 160.7,134.33 L 161.21,134.3 L 161.73,147.67 L 162.24,147.53 L 162.76,134.13 L 163.27,134.1 L 163.79,134.07 L 164.3,134.03 L 164.81,134 L 165.33,133.97 L 165.84,133.94 L 166.36,146.95 L 166.87,120.86 L 167.39,133.84 L 167.9,133.81 L 168.42,133.78 L 168.93,133.75 L 169.44,133.72 L 169.96,146.51 L 170.47,133.63 L 170.99,146.33 L 171.5,133.54 L 172.02,146.15 L 172.53,158.62 L 173.05,170.85 L 173.56,158.01 L 174.07,145.46 L 174.59,157.59 L 175.1,120.86 L 175.62,218.13 L 176.13,144.75 L 176.65,168.42 L 177.16,156.22 L 177.67,167.7 L 178.19,178.9 L 178.7,178.28 L 179.22,177.67 L 179.73,154.59 L 180.25,176.73 L 180.76,165.09 L 181.28,153.76 L 181.79,186.27 L 182.3,196.25 L 182.82,163.35 L 183.33,173.55 L 183.85,162.6 L 184.36,162.28 L 184.88,151.69 L 185.39,141.3 L 185.9,141.22 L 186.42,131 L 186.93,161.35 L 187.45,171.09 L 187.96,140.77 L 188.48,160.52 L 188.99,150.39 L 189.51,160.02 L 190.02,150.02 L 190.53,140.19 L 191.05,130.49 L 191.56,130.48 L 192.08,130.46 L 192.59,149.6 L 193.11,149.45 L 193.62,149.3 L 194.13,149.15 L 194.65,149 L 195.16,148.85 L 195.68,139.43 L 196.19,148.61 L 196.71,148.47 L 197.22,175.79 L 197.74,148.05 L 198.25,156.93 L 198.76,138.78 L 199.28,147.64 L 199.79,147.51 L 200.31,147.38 L 200.82,138.45 L 201.34,147.16 L 201.85,155.76 L 202.36,146.87 L 202.88,155.37 L 203.39,146.58 L 203.91,154.98 L 204.42,163.25 L 204.94,171.32 L 205.45,162.52 L 205.97,162.2 L 206.48,153.68 L 206.99,169.79 L 207.51,169.35 L 208.02,152.9 L 208.54,152.71 L 209.05,168.35 L 209.57,175.78 L 210.08,175.23 L 210.59,174.68 L 211.11,181.76 L 211.62,181.08 L 212.14,180.41 L 212.65,172.4 L 213.17,171.91 L 213.68,178.65 L 214.2,178.03 L 214.71,184.5 L 215.22,197.74 L 215.74,189.76 L 216.25,195.69 L 216.77,174.54 L 217.28,174.01 L 217.8,173.49 L 218.31,127.38 L 218.83,159.9 L 219.34,166.08 L 219.85,172.11 L 220.37,177.97 L 220.88,171.09 L 221.4,170.62 L 221.91,170.17 L 222.43,157.5 L 222.94,151.19 L 223.45,157.05 L 223.97,168.79 L 224.48,180.25 L 225,161.98 L 225.51,173.32 L 226.03,138.18 L 226.54,143.88 L 227.06,138.05 L 227.57,138 L 228.08,137.94 L 228.6,120.86 L 229.11,137.89 L 229.63,171.78 L 230.14,182.51 L 230.66,148.56 L 231.17,131.89 L 231.68,120.86 L 232.2,142.86 L 232.71,115.38 L 233.23,104.41 L 233.74,131.86 L 234.26,126.35 L 234.77,126.35 L 235.29,159.21 L 235.8,142.62 L 236.31,131.7 L 236.83,142.49 L 237.34,137.02 L 237.86,136.97 L 238.37,142.27 L 238.89,136.86 L 239.4,136.81 L 239.91,157.96 L 240.43,147.18 L 240.94,136.58 L 241.46,141.75 L 241.97,131.27 L 242.49,131.25 L 243,141.59 L 243.52,136.35 L 244.03,136.3 L 244.54,141.39 L 245.06,131.09 L 245.57,131.07 L 246.09,131.05 L 246.6,151.37 L 247.12,146.14 L 247.63,130.93 L 248.14,130.91 L 248.66,135.9 L 249.17,130.86 L 249.69,130.84 L 250.2,130.82 L 250.72,140.75 L 251.23,145.63 L 251.75,145.51 L 252.26,140.49 L 252.77,111.08 L 253.29,91.47 L 253.8,101.16 L 254.32,135.69 L 254.83,140.58 L 255.35,125.77 L 255.86,125.77 L 256.37,140.48 L 256.89,130.63 L 257.4,130.62 L 257.92,140.33 L 258.43,149.96 L 258.95,140.16 L 259.46,140.09 L 259.98,144.81 L 260.49,135.17 L 261,144.64 L 261.52,135.07 L 262.03,144.47 L 262.55,139.67 L 263.06,134.92 L 263.58,139.55 L 264.09,130.18 L 264.61,139.46 L 265.12,130.13 L 265.63,134.74 L 266.15,153.15 L 266.66,134.62 L 267.18,143.73 L 267.69,143.63 L 268.21,143.54 L 268.72,143.44 L 269.23,138.85 L 269.75,138.79 L 270.26,138.73 L 270.78,143.12 L 271.29,138.6 L 271.81,147.38 L 272.32,160.44 L 272.84,147.06 L 273.35,138.24 L 273.86,138.18 L 274.38,120.86 L 274.89,133.81 L 275.41,146.7 L 275.92,142.29 L 276.44,137.94 L 276.95,171.92 L 277.46,141.94 L 277.98,146.05 L 278.49,133.4 L 279.01,129.2 L 279.52,154.16 L 280.04,145.68 L 280.55,166.16 L 281.07,157.62 L 281.58,157.37 L 282.09,132.95 L 282.61,140.96 L 283.12,140.88 L 283.64,124.85 L 284.15,120.86 L 284.67,132.82 L 285.18,140.75 L 285.69,136.71 L 286.21,128.76 L 286.72,136.65 L 287.24,136.6 L 287.75,128.71 L 288.27,144.36 L 288.78,136.46 L 289.3,124.75 L 289.81,132.52 L 290.32,140.25 L 290.84,132.45 L 291.35,132.43 L 291.87,136.25 L 292.38,136.21 L 292.9,132.34 L 293.41,132.31 L 293.92,143.71 L 294.44,136.03 L 294.95,128.43 L 295.47,139.74 L 295.98,132.15 L 296.5,128.37 L 297.01,139.61 L 297.53,135.81 L 298.04,124.59 L 298.55,128.31 L 299.07,132.02 L 299.58,128.28 L 300.1,143.1 L 300.61,135.63 L 301.13,131.9 L 301.64,120.86 L 302.15,135.56 L 302.67,135.52 L 303.18,124.51 L 303.7,131.81 L 304.21,135.44 L 304.73,139.03 L 305.24,142.59 L 305.76,131.68 L 306.27,124.46 L 306.78,135.25 L 307.3,131.62 L 307.81,135.18 L 308.33,135.15 L 308.84,131.55 L 309.36,142.19 L 309.87,131.48 L 310.39,131.46 L 310.9,127.91 L 311.41,131.43 L 311.93,127.89 L 312.44,134.9 L 312.96,127.86 L 313.47,127.85 L 313.99,148.8 L 314.5,131.28 L 315.01,138.2 L 315.53,141.6 L 316.04,131.19 L 316.56,131.17 L 317.07,131.15 L 317.59,127.71 L 318.1,137.96 L 318.62,137.9 L 319.13,137.85 L 319.64,134.41 L 320.16,131 L 320.67,130.98 L 321.19,124.23 L 321.7,124.22 L 322.22,120.86 L 322.73,130.94 L 323.24,127.57 L 323.76,134.26 L 324.27,134.23 L 324.79,130.86 L 325.3,127.52 L 325.82,124.18 L 326.33,127.5 L 326.85,120.86 L 327.36,120.86 L 327.87,127.5 L 328.39,134.11 L 328.9,127.47 L 329.42,134.07 L 329.93,127.45 L 330.45,124.15 L 330.96,134.01 L 331.47,127.42 L 331.99,130.69 L 332.5,130.67 L 333.02,120.86 L 333.53,124.12 L 334.05,156.73 L 334.56,124.1 L 335.08,120.86 L 335.59,143.52 L 336.1,133.76 L 336.62,143.37 L 337.13,130.47 L 337.65,130.45 L 338.16,133.63 L 338.68,136.78 L 339.19,143.08 L 339.7,152.48 L 340.22,117.72 L 340.73,130.3 L 341.25,152.25 L 341.76,136.47 L 342.28,120.86 L 342.79,148.87 L 343.31,130.15 L 343.82,130.13 L 344.33,133.2 L 344.85,151.64 L 345.36,133.1 L 345.88,123.92 L 346.39,130.02 L 346.91,148.28 L 347.42,132.99 L 347.94,111.79 L 348.45,120.86 L 348.96,142.07 L 349.48,105.77 L 349.99,117.84 L 350.51,117.83 L 351.02,129.95 L 351.54,129.93 L 352.05,135.96 L 352.56,144.95 L 353.08,126.86 L 353.59,123.86 L 354.11,132.83 L 354.62,135.79 L 355.14,129.79 L 355.65,132.75 L 356.17,129.76 L 356.68,129.74 L 357.19,144.51 L 357.71,150.29 L 358.22,129.64 L 358.74,100.4 L 359.25,112.06 L 359.77,126.74 L 360.28,138.47 L 360.79,144.27 L 361.31,138.34 L 361.82,115.05 L 362.34,123.77 L 362.85,135.39 L 363.37,141.14 L 363.88,135.29 L 364.4,132.38 L 364.91,129.48 L 365.42,143.8 L 365.94,140.85 L 366.45,126.55 L 366.97,129.39 L 367.48,132.21 L 368,149.18 L 368.51,143.4 L 369.02,123.67 L 369.54,120.86 L 370.05,137.68 L 370.57,137.63 L 371.08,145.94 L 371.6,112.54 L 372.11,123.64 L 372.63,156.95 L 373.14,156.71 L 373.65,192.08 L 374.17,131.67 L 374.68,96.58 L 375.2,118.15 L 375.71,153.4 L 376.23,118.17 L 376.74,128.95 L 377.25,147.79 L 377.77,139.61 L 378.28,136.88 L 378.8,147.48 L 379.31,144.7 L 379.83,97.13 L 380.34,94.37 L 380.86,126.19 L 381.37,152.77 L 381.88,127.52 L 382.4,136.86 L 382.91,145.61 L 383.43,137.97 L 383.94,145.65 L 384.46,135.06 L 384.97,132.84 L 385.48,121.92 L 386,140.52 L 386.51,134.93 L 387.03,169.06 L 387.54,139.97 L 388.06,142.09 L 388.57,122.25 L 389.09,139.32 L 389.6,132" />
        </g>
      </g>
    </g>
    <path
       id="path2569"
       style="fill:none;stroke:#000000;stroke-width:0.9375;stroke-linecap:round;stroke-linejoin:round;stroke-miterlimit:10;stroke-dasharray:none;stroke-opacity:1"
       d="M 190.55223,778.53023 L 576.33973,778.53023" />
    <path
       id="path2571"
       style="fill:none;stroke:#000000;stroke-width:0.9375;stroke-linecap:round;stroke-linejoin:round;stroke-miterlimit:10;stroke-dasharray:none;stroke-opacity:1"
       d="M 190.55223,778.53023 L 190.55223,787.53023" />
    <path
       id="path2573"
       style="fill:none;stroke:#000000;stroke-width:0.9375;stroke-linecap:round;stroke-linejoin:round;stroke-miterlimit:10;stroke-dasharray:none;stroke-opacity:1"
       d="M 267.71473,778.53023 L 267.71473,787.53023" />
    <path
       id="path2575"
       style="fill:none;stroke:#000000;stroke-width:0.9375;stroke-linecap:round;stroke-linejoin:round;stroke-miterlimit:10;stroke-dasharray:none;stroke-opacity:1"
       d="M 344.86473,778.53023 L 344.86473,787.53023" />
    <path
       id="path2577"
       style="fill:none;stroke:#000000;stroke-width:0.9375;stroke-linecap:round;stroke-linejoin:round;stroke-miterlimit:10;stroke-dasharray:none;stroke-opacity:1"
       d="M 422.02723,778.53023 L 422.02723,787.53023" />
    <path
       id="path2579"
       style="fill:none;stroke:#000000;stroke-width:0.9375;stroke-linecap:round;stroke-linejoin:round;stroke-miterlimit:10;stroke-dasharray:none;stroke-opacity:1"
       d="M 499.18973,778.53023 L 499.18973,787.53023" />
    <path
       id="path2581"
       style="fill:none;stroke:#000000;stroke-width:0.9375;stroke-linecap:round;stroke-linejoin:round;stroke-miterlimit:10;stroke-dasharray:none;stroke-opacity:1"
       d="M 576.33973,778.53023 L 576.33973,787.53023" />
    <text
       id="text2583"
       x="173.87723"
       y="810.93024"
       style="font-size:15px">
      <tspan
         id="tspan2585"
         sodipodi:role="line"
         y="810.93024"
         x="173.87723 182.21722 190.55724 198.89723"
         style="font-size:15px;font-variant:normal;font-weight:normal;writing-mode:lr-tb;fill:#000000;fill-opacity:1;fill-rule:nonzero;stroke:none;font-family:Helvetica;-inkscape-font-specification:Helvetica">1960</tspan>
    </text>
    <text
       id="text2587"
       x="251.02724"
       y="810.93024"
       style="font-size:15px">
      <tspan
         id="tspan2589"
         sodipodi:role="line"
         y="810.93024"
         x="251.02724 259.36722 267.70724 276.04724"
         style="font-size:15px;font-variant:normal;font-weight:normal;writing-mode:lr-tb;fill:#000000;fill-opacity:1;fill-rule:nonzero;stroke:none;font-family:Helvetica;-inkscape-font-specification:Helvetica">1970</tspan>
    </text>
    <text
       id="text2591"
       x="328.18973"
       y="810.93024"
       style="font-size:15px">
      <tspan
         id="tspan2593"
         sodipodi:role="line"
         y="810.93024"
         x="328.18973 336.52972 344.86972 353.20972"
         style="font-size:15px;font-variant:normal;font-weight:normal;writing-mode:lr-tb;fill:#000000;fill-opacity:1;fill-rule:nonzero;stroke:none;font-family:Helvetica;-inkscape-font-specification:Helvetica">1980</tspan>
    </text>
    <text
       id="text2595"
       x="405.35223"
       y="810.93024"
       style="font-size:15px">
      <tspan
         id="tspan2597"
         sodipodi:role="line"
         y="810.93024"
         x="405.35223 413.69223 422.03223 430.37222"
         style="font-size:15px;font-variant:normal;font-weight:normal;writing-mode:lr-tb;fill:#000000;fill-opacity:1;fill-rule:nonzero;stroke:none;font-family:Helvetica;-inkscape-font-specification:Helvetica">1990</tspan>
    </text>
    <text
       id="text2599"
       x="482.50223"
       y="810.93024"
       style="font-size:15px">
      <tspan
         id="tspan2601"
         sodipodi:role="line"
         y="810.93024"
         x="482.50223 490.84222 499.18222 507.52222"
         style="font-size:15px;font-variant:normal;font-weight:normal;writing-mode:lr-tb;fill:#000000;fill-opacity:1;fill-rule:nonzero;stroke:none;font-family:Helvetica;-inkscape-font-specification:Helvetica">2000</tspan>
    </text>
    <text
       id="text2603"
       x="559.66473"
       y="810.93024"
       style="font-size:15px">
      <tspan
         id="tspan2605"
         sodipodi:role="line"
         y="810.93024"
         x="559.66473 568.0047 576.34473 584.68475"
         style="font-size:15px;font-variant:normal;font-weight:normal;writing-mode:lr-tb;fill:#000000;fill-opacity:1;fill-rule:nonzero;stroke:none;font-family:Helvetica;-inkscape-font-specification:Helvetica">2010</tspan>
    </text>
    <text
       id="text2607"
       x="88.839569"
       y="758.42468"
       style="font-size:15px">
      <tspan
         id="tspan2609"
         sodipodi:role="line"
         y="758.42468"
         x="88.839569"
         style="font-size:15px;font-variant:normal;font-weight:normal;writing-mode:lr-tb;fill:#000000;fill-opacity:1;fill-rule:nonzero;stroke:none;font-family:Helvetica;-inkscape-font-specification:Helvetica">CPI inflation</tspan>
    </text>
  </g>
</svg>
